999
Therion DXF export
0
SECTION
2
HEADER
9
$ACADVER
1
AC1006
9
$INSBASE
10
0.0
20
0.0
30
0.0
9
$EXTMIN
10
1482226.000
20
5077744.970
30
615.290
9
$EXTMAX
10
1482494.090
20
5077950.510
30
621.130
0
ENDSEC
0
SECTION
2
TABLES
0
TABLE
2
LTYPE
70
1
0
LTYPE
2
CONTINUOUS
70
64
3
Solid line
72
65
73
0
40
0.000000
0
ENDTAB
0
TABLE
2
LAYER
70
6
0
LAYER
2
CENTERLINE
70
64
62
4
6
CONTINUOUS
0
LAYER
2
WALLS
70
64
62
7
6
CONTINUOUS
0
LAYER
2
SURFACE
70
64
62
3
6
CONTINUOUS
0
LAYER
2
SURFACE_CENTERLINE
70
64
62
8
6
CONTINUOUS
0
LAYER
2
BBOX
70
64
62
1
6
CONTINUOUS
0
ENDTAB
0
TABLE
2
STYLE
70
0
0
ENDTAB
0
ENDSEC
0
SECTION
2
BLOCKS
0
ENDSEC
0
SECTION
2
ENTITIES
0
LINE
8
CENTERLINE
10
1482226.000
20
5077758.000
30
619.000
11
1482229.950
21
5077756.450
31
618.830
0
LINE
8
CENTERLINE
10
1482229.950
20
5077756.450
30
618.830
11
1482229.420
21
5077761.750
31
618.870
0
LINE
8
CENTERLINE
10
1482229.420
20
5077761.750
30
618.870
11
1482232.980
21
5077761.650
31
615.390
0
LINE
8
CENTERLINE
10
1482232.980
20
5077761.650
30
615.390
11
1482233.180
21
5077761.800
31
615.390
0
LINE
8
CENTERLINE
10
1482233.180
20
5077761.800
30
615.390
11
1482243.870
21
5077761.170
31
615.290
0
LINE
8
CENTERLINE
10
1482243.870
20
5077761.170
30
615.290
11
1482247.630
21
5077759.500
31
616.960
0
LINE
8
CENTERLINE
10
1482247.630
20
5077759.500
30
616.960
11
1482251.980
21
5077755.970
31
615.660
0
LINE
8
CENTERLINE
10
1482251.980
20
5077755.970
30
615.660
11
1482255.370
21
5077757.520
31
615.660
0
LINE
8
CENTERLINE
10
1482255.370
20
5077757.520
30
615.660
11
1482257.780
21
5077755.800
31
616.010
0
LINE
8
CENTERLINE
10
1482257.780
20
5077755.800
30
616.010
11
1482269.710
21
5077758.230
31
615.980
0
LINE
8
CENTERLINE
10
1482269.710
20
5077758.230
30
615.980
11
1482271.980
21
5077757.790
31
616.620
0
LINE
8
CENTERLINE
10
1482271.980
20
5077757.790
30
616.620
11
1482280.120
21
5077750.510
31
616.140
0
LINE
8
CENTERLINE
10
1482280.120
20
5077750.510
30
616.140
11
1482288.020
21
5077746.710
31
617.000
0
LINE
8
CENTERLINE
10
1482288.020
20
5077746.710
30
617.000
11
1482295.900
21
5077744.970
31
617.970
0
LINE
8
CENTERLINE
10
1482295.900
20
5077744.970
30
617.970
11
1482298.140
21
5077748.660
31
617.420
0
LINE
8
CENTERLINE
10
1482298.140
20
5077748.660
30
617.420
11
1482304.410
21
5077750.660
31
618.100
0
LINE
8
CENTERLINE
10
1482304.410
20
5077750.660
30
618.100
11
1482305.240
21
5077755.510
31
618.950
0
LINE
8
CENTERLINE
10
1482305.240
20
5077755.510
30
618.950
11
1482300.920
21
5077754.810
31
618.180
0
LINE
8
CENTERLINE
10
1482300.920
20
5077754.810
30
618.180
11
1482298.450
21
5077757.770
31
617.260
0
LINE
8
CENTERLINE
10
1482298.450
20
5077757.770
30
617.260
11
1482298.040
21
5077766.120
31
617.330
0
LINE
8
CENTERLINE
10
1482298.040
20
5077766.120
30
617.330
11
1482296.940
21
5077767.480
31
617.440
0
LINE
8
CENTERLINE
10
1482296.940
20
5077767.480
30
617.440
11
1482296.210
21
5077770.880
31
617.450
0
LINE
8
CENTERLINE
10
1482296.210
20
5077770.880
30
617.450
11
1482296.980
21
5077772.190
31
617.600
0
LINE
8
CENTERLINE
10
1482296.980
20
5077772.190
30
617.600
11
1482288.280
21
5077774.930
31
617.460
0
LINE
8
CENTERLINE
10
1482288.280
20
5077774.930
30
617.460
11
1482284.740
21
5077777.140
31
617.130
0
LINE
8
CENTERLINE
10
1482284.740
20
5077777.140
30
617.130
11
1482284.910
21
5077779.930
31
616.960
0
LINE
8
CENTERLINE
10
1482284.910
20
5077779.930
30
616.960
11
1482285.890
21
5077783.470
31
616.520
0
LINE
8
CENTERLINE
10
1482285.890
20
5077783.470
30
616.520
11
1482296.600
21
5077781.400
31
617.170
0
LINE
8
CENTERLINE
10
1482296.600
20
5077781.400
30
617.170
11
1482301.710
21
5077787.150
31
616.800
0
LINE
8
CENTERLINE
10
1482301.710
20
5077787.150
30
616.800
11
1482310.370
21
5077786.760
31
616.410
0
LINE
8
CENTERLINE
10
1482310.370
20
5077786.760
30
616.410
11
1482317.970
21
5077787.280
31
616.770
0
LINE
8
CENTERLINE
10
1482317.970
20
5077787.280
30
616.770
11
1482330.180
21
5077793.790
31
617.470
0
LINE
8
CENTERLINE
10
1482330.180
20
5077793.790
30
617.470
11
1482335.090
21
5077794.910
31
617.280
0
LINE
8
CENTERLINE
10
1482335.090
20
5077794.910
30
617.280
11
1482343.130
21
5077802.050
31
617.130
0
LINE
8
CENTERLINE
10
1482343.130
20
5077802.050
30
617.130
11
1482346.750
21
5077807.020
31
617.500
0
LINE
8
CENTERLINE
10
1482346.750
20
5077807.020
30
617.500
11
1482357.760
21
5077812.870
31
616.570
0
LINE
8
CENTERLINE
10
1482357.760
20
5077812.870
30
616.570
11
1482365.290
21
5077819.820
31
617.730
0
LINE
8
CENTERLINE
10
1482365.290
20
5077819.820
30
617.730
11
1482373.180
21
5077817.700
31
617.080
0
LINE
8
CENTERLINE
10
1482373.180
20
5077817.700
30
617.080
11
1482378.530
21
5077821.630
31
616.990
0
LINE
8
CENTERLINE
10
1482378.530
20
5077821.630
30
616.990
11
1482379.080
21
5077825.490
31
618.040
0
LINE
8
CENTERLINE
10
1482379.080
20
5077825.490
30
618.040
11
1482381.740
21
5077827.170
31
618.440
0
LINE
8
CENTERLINE
10
1482381.740
20
5077827.170
30
618.440
11
1482385.510
21
5077832.670
31
617.790
0
LINE
8
CENTERLINE
10
1482385.510
20
5077832.670
30
617.790
11
1482388.260
21
5077837.180
31
617.500
0
LINE
8
CENTERLINE
10
1482388.260
20
5077837.180
30
617.500
11
1482392.930
21
5077840.260
31
618.040
0
LINE
8
CENTERLINE
10
1482392.930
20
5077840.260
30
618.040
11
1482395.190
21
5077839.270
31
618.150
0
LINE
8
CENTERLINE
10
1482395.190
20
5077839.270
30
618.150
11
1482397.240
21
5077843.850
31
618.740
0
LINE
8
CENTERLINE
10
1482397.240
20
5077843.850
30
618.740
11
1482406.500
21
5077849.620
31
618.610
0
LINE
8
CENTERLINE
10
1482406.500
20
5077849.620
30
618.610
11
1482409.600
21
5077848.210
31
618.660
0
LINE
8
CENTERLINE
10
1482409.600
20
5077848.210
30
618.660
11
1482411.560
21
5077849.270
31
618.880
0
LINE
8
CENTERLINE
10
1482411.560
20
5077849.270
30
618.880
11
1482410.410
21
5077854.590
31
618.630
0
LINE
8
CENTERLINE
10
1482410.410
20
5077854.590
30
618.630
11
1482412.310
21
5077856.170
31
619.050
0
LINE
8
CENTERLINE
10
1482412.310
20
5077856.170
30
619.050
11
1482416.570
21
5077855.450
31
619.380
0
LINE
8
CENTERLINE
10
1482416.570
20
5077855.450
30
619.380
11
1482418.980
21
5077853.060
31
619.350
0
LINE
8
CENTERLINE
10
1482418.980
20
5077853.060
30
619.350
11
1482432.070
21
5077858.160
31
619.820
0
LINE
8
CENTERLINE
10
1482432.070
20
5077858.160
30
619.820
11
1482439.750
21
5077855.940
31
620.260
0
LINE
8
CENTERLINE
10
1482439.750
20
5077855.940
30
620.260
11
1482443.820
21
5077856.650
31
620.130
0
LINE
8
CENTERLINE
10
1482443.820
20
5077856.650
30
620.130
11
1482441.490
21
5077860.720
31
620.200
0
LINE
8
CENTERLINE
10
1482441.490
20
5077860.720
30
620.200
11
1482433.870
21
5077872.500
31
619.440
0
LINE
8
CENTERLINE
10
1482433.870
20
5077872.500
30
619.440
11
1482442.450
21
5077877.990
31
619.760
0
LINE
8
CENTERLINE
10
1482442.450
20
5077877.990
30
619.760
11
1482447.440
21
5077883.660
31
619.090
0
LINE
8
CENTERLINE
10
1482447.440
20
5077883.660
30
619.090
11
1482451.780
21
5077887.420
31
619.080
0
LINE
8
CENTERLINE
10
1482451.780
20
5077887.420
30
619.080
11
1482454.060
21
5077885.430
31
619.350
0
LINE
8
CENTERLINE
10
1482454.060
20
5077885.430
30
619.350
11
1482458.380
21
5077881.210
31
619.240
0
LINE
8
CENTERLINE
10
1482458.380
20
5077881.210
30
619.240
11
1482467.610
21
5077885.240
31
620.300
0
LINE
8
CENTERLINE
10
1482467.610
20
5077885.240
30
620.300
11
1482471.420
21
5077888.610
31
620.580
0
LINE
8
CENTERLINE
10
1482471.420
20
5077888.610
30
620.580
11
1482472.930
21
5077898.130
31
619.990
0
LINE
8
CENTERLINE
10
1482472.930
20
5077898.130
30
619.990
11
1482477.370
21
5077899.630
31
620.540
0
LINE
8
CENTERLINE
10
1482477.370
20
5077899.630
30
620.540
11
1482473.900
21
5077906.860
31
618.840
0
LINE
8
CENTERLINE
10
1482473.900
20
5077906.860
30
618.840
11
1482468.840
21
5077913.040
31
619.580
0
LINE
8
CENTERLINE
10
1482468.840
20
5077913.040
30
619.580
11
1482468.370
21
5077917.440
31
619.430
0
LINE
8
CENTERLINE
10
1482468.370
20
5077917.440
30
619.430
11
1482454.450
21
5077916.370
31
618.700
0
LINE
8
CENTERLINE
10
1482454.450
20
5077916.370
30
618.700
11
1482449.750
21
5077918.620
31
619.850
0
LINE
8
CENTERLINE
10
1482449.750
20
5077918.620
30
619.850
11
1482451.770
21
5077923.550
31
619.340
0
LINE
8
CENTERLINE
10
1482451.770
20
5077923.550
30
619.340
11
1482448.510
21
5077925.180
31
619.330
0
LINE
8
CENTERLINE
10
1482448.510
20
5077925.180
30
619.330
11
1482445.440
21
5077921.600
31
618.340
0
LINE
8
CENTERLINE
10
1482445.440
20
5077921.600
30
618.340
11
1482434.810
21
5077921.190
31
618.470
0
LINE
8
CENTERLINE
10
1482434.810
20
5077921.190
30
618.470
11
1482431.770
21
5077928.640
31
617.320
0
LINE
8
CENTERLINE
10
1482431.770
20
5077928.640
30
617.320
11
1482418.410
21
5077926.340
31
617.390
0
LINE
8
CENTERLINE
10
1482418.410
20
5077926.340
30
617.390
11
1482412.540
21
5077942.570
31
617.780
0
LINE
8
CENTERLINE
10
1482412.540
20
5077942.570
30
617.780
11
1482403.170
21
5077939.670
31
616.820
0
LINE
8
CENTERLINE
10
1482403.170
20
5077939.670
30
616.820
11
1482402.600
21
5077950.510
31
616.970
0
LINE
8
CENTERLINE
10
1482471.420
20
5077888.610
30
620.580
11
1482471.760
21
5077881.800
31
620.380
0
LINE
8
CENTERLINE
10
1482471.760
20
5077881.800
30
620.380
11
1482489.930
21
5077870.530
31
621.130
0
LINE
8
CENTERLINE
10
1482489.930
20
5077870.530
30
621.130
11
1482494.090
21
5077865.880
31
620.920
0
LINE
8
SPLAY_SHOTS
10
1482468.370
20
5077917.440
30
619.430
11
1482453.890
21
5077916.360
31
618.700
0
LINE
8
SPLAY_SHOTS
10
1482467.610
20
5077885.240
30
620.300
11
1482471.510
21
5077888.600
31
620.700
0
LINE
8
SPLAY_SHOTS
10
1482467.610
20
5077885.240
30
620.300
11
1482469.640
21
5077887.000
31
620.510
0
LINE
8
SPLAY_SHOTS
10
1482467.610
20
5077885.240
30
620.300
11
1482470.080
21
5077887.380
31
620.560
0
LINE
8
SPLAY_SHOTS
10
1482467.610
20
5077885.240
30
620.300
11
1482471.500
21
5077888.600
31
620.700
0
LINE
8
BBOX
10
1482226.000
20
5077744.970
30
615.290
11
1482494.090
21
5077744.970
31
615.290
0
LINE
8
BBOX
10
1482226.000
20
5077744.970
30
615.290
11
1482226.000
21
5077950.510
31
615.290
0
LINE
8
BBOX
10
1482226.000
20
5077744.970
30
615.290
11
1482226.000
21
5077744.970
31
621.130
0
LINE
8
BBOX
10
1482494.090
20
5077950.510
30
621.130
11
1482226.000
21
5077950.510
31
621.130
0
LINE
8
BBOX
10
1482494.090
20
5077950.510
30
621.130
11
1482494.090
21
5077744.970
31
621.130
0
LINE
8
BBOX
10
1482494.090
20
5077950.510
30
621.130
11
1482494.090
21
5077950.510
31
615.290
0
LINE
8
BBOX
10
1482226.000
20
5077744.970
30
621.130
11
1482494.090
21
5077744.970
31
621.130
0
LINE
8
BBOX
10
1482226.000
20
5077744.970
30
621.130
11
1482226.000
21
5077950.510
31
621.130
0
LINE
8
BBOX
10
1482494.090
20
5077744.970
30
615.290
11
1482494.090
21
5077744.970
31
621.130
0
LINE
8
BBOX
10
1482494.090
20
5077950.510
30
615.290
11
1482226.000
21
5077950.510
31
615.290
0
LINE
8
BBOX
10
1482494.090
20
5077950.510
30
615.290
11
1482494.090
21
5077744.970
31
615.290
0
LINE
8
BBOX
10
1482226.000
20
5077950.510
30
621.130
11
1482226.000
21
5077950.510
31
615.290
0
ENDSEC
0
EOF
